<?xml version="1.0" encoding="UTF-8" standalone="no"?>
<!-- Created with Inkscape (http://www.inkscape.org/) -->

<svg
   width="64.0px"
   height="64.0px"
   viewBox="0 0 64.0 64.0"
   version="1.1"
   id="SVGRoot"
   sodipodi:docname="favicon.svg"
   inkscape:version="1.1.2 (b8e25be833, 2022-02-05)"
   xmlns:inkscape="http://www.inkscape.org/namespaces/inkscape"
   xmlns:sodipodi="http://sodipodi.sourceforge.net/DTD/sodipodi-0.dtd"
   xmlns="http://www.w3.org/2000/svg"
   xmlns:svg="http://www.w3.org/2000/svg">
  <sodipodi:namedview
     id="namedview46"
     pagecolor="#ffffff"
     bordercolor="#666666"
     borderopacity="1.0"
     inkscape:pageshadow="2"
     inkscape:pageopacity="0.0"
     inkscape:pagecheckerboard="0"
     inkscape:document-units="px"
     showgrid="true"
     inkscape:zoom="10.535589"
     inkscape:cx="24.061303"
     inkscape:cy="30.041035"
     inkscape:window-width="1920"
     inkscape:window-height="1111"
     inkscape:window-x="-9"
     inkscape:window-y="-9"
     inkscape:window-maximized="1"
     inkscape:current-layer="text9972-9-5"
     showguides="false"
     inkscape:showpageshadow="2"
     inkscape:deskcolor="#d1d1d1">
    <inkscape:grid
       type="xygrid"
       id="grid52"
       originx="0"
       originy="0"
       spacingy="1"
       spacingx="1"
       units="px" />
  </sodipodi:namedview>
  <defs
     id="defs41" />
  <g
     inkscape:label="Layer 1"
     inkscape:groupmode="layer"
     id="layer1">
    <text
       xml:space="preserve"
       style="font-style:normal;font-weight:normal;font-size:40px;line-height:1.25;font-family:sans-serif;fill:#000000;fill-opacity:1;stroke:none"
       x="0.90178835"
       y="45.418354"
       id="text987"><tspan
         sodipodi:role="line"
         x="0.90178835"
         y="45.418354"
         id="tspan989" /></text>
    <rect
       style="fill:#ff7f2a;stroke:none;stroke-width:1.01562"
       id="rect9594"
       width="65"
       height="65"
       x="0"
       y="0" />
    <text
       xml:space="preserve"
       style="font-style:normal;font-weight:normal;font-size:40px;line-height:1.25;font-family:sans-serif;fill:#000000;fill-opacity:1;stroke:none"
       x="2.3691907"
       y="27.764946"
       id="text9972"><tspan
         sodipodi:role="line"
         x="2.3691907"
         y="27.764946"
         style="font-style:normal;font-variant:normal;font-weight:normal;font-stretch:normal;font-size:34.6667px;font-family:'Berlin Sans FB Demi';-inkscape-font-specification:'Berlin Sans FB Demi';fill:#ffffff"
         id="tspan2" /></text>
    <g
       aria-label="R"
       id="text9972-9"
       style="font-size:42.6667px;line-height:1.25"
       transform="translate(-1.251931,-0.7702974)">
      <path
         d="m 32.335268,31.791138 q 0,0.145834 -0.416667,0.208334 -0.791667,0.125 -3.979169,0.125 -2.729169,0 -3.708336,-0.125 -0.458334,-0.0625 -0.520834,-0.104167 -0.125,-0.0625 -0.291667,-0.416667 -0.3125,-0.812501 -0.916667,-2.416669 -0.812501,-2.083334 -2.541669,-6.145837 -0.375,-0.812501 -1.729168,-0.895834 0.625001,0.04167 -2.145835,0.04167 -0.3125,0 -0.3125,1.062501 0,1.416668 0.25,4.22917 0.270834,2.812502 0.270834,4.22917 0,0.354167 -0.1875,0.416667 -0.291667,0.02083 -0.583334,0.04167 -1.229168,0.08333 -3.833336,0.08333 -2.9791692,0 -3.5833363,-0.125 -0.6041671,-0.125 -0.6041671,-0.645834 0,-2.291669 0.2083335,-6.916672 0.2291668,-4.625003 0.2291668,-6.937505 0,-8.8125067 -0.3958336,-13.7500104 L 7.5227499,3.4577837 Q 7.5019166,3.1036168 8.1685837,2.9786167 8.8560842,2.8536166 14.543588,2.7286165 q 3.85417,-0.083333 6.145838,-0.083333 4.750004,0 7.750006,2.145835 3.395836,2.4166684 3.395836,6.9791715 0,3.041669 -0.875001,4.85417 -0.875,1.812502 -3.229169,3.520836 -0.479167,0.333334 -0.479167,0.625001 0,-0.02083 2.541669,5.22917 2.541668,5.250004 2.541668,5.791671 z M 23.585262,13.103624 q 0,-2.541668 -1.666668,-3.5208357 -1.291668,-0.7500006 -4.04167,-0.7500006 -1.979168,0 -2.104168,0.6041672 -0.125,0.7083341 -0.125,4.0833361 0,0.479167 0.02083,1.416668 0.02083,0.937501 0.02083,1.395834 0,0.104167 0.666667,0.208334 1.270834,0.1875 2.666668,0.1875 4.562504,0 4.562504,-3.625003 z"
         style="font-family:'Berlin Sans FB Demi';-inkscape-font-specification:'Berlin Sans FB Demi';fill:#ffffff"
         id="path833" />
    </g>
    <g
       aria-label="R"
       id="text9972-9-5"
       style="font-size:42.6667px;line-height:1.25">
      <path
         d="m 58.921491,62.479701 q 0,0.145833 -0.416667,0.208333 -0.791668,0.125 -3.97917,0.125 -2.729169,0 -3.708336,-0.125 -0.458334,-0.0625 -0.520834,-0.104167 -0.125,-0.0625 -0.291667,-0.416667 -0.3125,-0.8125 -0.916667,-2.416668 -0.812501,-2.083335 -2.541669,-6.145838 -0.375,-0.812501 -1.729168,-0.895834 0.625001,0.04167 -2.145835,0.04167 -0.3125,0 -0.3125,1.0625 0,1.416668 0.25,4.22917 0.270834,2.812502 0.270834,4.22917 0,0.354167 -0.1875,0.416667 -0.291667,0.02083 -0.583334,0.04167 -1.229168,0.08333 -3.833336,0.08333 -2.979169,0 -3.583336,-0.125 -0.604167,-0.125 -0.604167,-0.645834 0,-2.291668 0.208333,-6.916672 0.229167,-4.625003 0.229167,-6.937505 0,-8.812506 -0.395834,-13.75001 l -0.02083,-0.291667 q -0.02083,-0.354167 0.645834,-0.479167 0.6875,-0.125 6.375005,-0.25 3.854169,-0.08333 6.145838,-0.08333 4.750003,0 7.750005,2.145834 3.395836,2.416669 3.395836,6.979172 0,3.041669 -0.875,4.854171 -0.875001,1.812501 -3.22917,3.520836 -0.479167,0.333333 -0.479167,0.625 0,-0.02083 2.541669,5.229171 2.541669,5.250003 2.541669,5.791671 z M 50.171484,43.792187 q 0,-2.541669 -1.666668,-3.520836 -1.291667,-0.750001 -4.04167,-0.750001 -1.979168,0 -2.104168,0.604167 -0.125,0.708334 -0.125,4.083337 0,0.479167 0.02083,1.416667 0.02083,0.937501 0.02083,1.395835 0,0.104166 0.666667,0.208333 1.270834,0.1875 2.666669,0.1875 4.562503,0 4.562503,-3.625002 z"
         style="font-family:'Berlin Sans FB Demi';-inkscape-font-specification:'Berlin Sans FB Demi';fill:#ffffff"
         id="path854" />
      <g
         aria-label=":"
         id="text1591"
         style="font-size:53.3333px;font-family:'Agency FB';-inkscape-font-specification:'Agency FB';fill:#ffffff">
        <path
           d="m 41.362523,10.476727 q 0,1.562499 -1.041666,2.630207 -1.041666,1.067708 -2.578123,1.067708 -1.484374,0 -2.473957,-1.09375 -0.989583,-1.093749 -0.989583,-2.604165 0,-1.5364571 0.989583,-2.6302064 0.989583,-1.0937494 2.52604,-1.0937494 1.510416,0 2.52604,1.0937494 1.041666,1.0937493 1.041666,2.6302064 z m 0,13.932284 q 0,1.536457 -1.041666,2.68229 -1.015624,1.145832 -2.52604,1.145832 -1.536457,0 -2.52604,-1.145832 -0.989583,-1.145833 -0.989583,-2.68229 0,-1.640624 0.963541,-2.68229 0.989583,-1.041666 2.604165,-1.041666 1.536458,0 2.52604,1.093749 0.989583,1.067708 0.989583,2.630207 z"
           style="font-family:'Berlin Sans FB';-inkscape-font-specification:'Berlin Sans FB'"
           id="path834" />
      </g>
    </g>
  </g>
</svg>
