<?xml version="1.0" encoding="UTF-8" standalone="no"?>
<!-- Created with Inkscape (http://www.inkscape.org/) -->

<svg
   width="60px"
   height="40px"
   viewBox="0 0 60 40"
   version="1.1"
   id="SVGRoot"
   sodipodi:docname="toTop.svg"
   inkscape:version="1.1.2 (b8e25be833, 2022-02-05)"
   xmlns:inkscape="http://www.inkscape.org/namespaces/inkscape"
   xmlns:sodipodi="http://sodipodi.sourceforge.net/DTD/sodipodi-0.dtd"
   xmlns="http://www.w3.org/2000/svg"
   xmlns:svg="http://www.w3.org/2000/svg">
  <sodipodi:namedview
     id="namedview842"
     pagecolor="#ffffff"
     bordercolor="#666666"
     borderopacity="1.0"
     inkscape:pageshadow="2"
     inkscape:pageopacity="0.0"
     inkscape:pagecheckerboard="0"
     inkscape:document-units="px"
     showgrid="true"
     inkscape:zoom="10.248373"
     inkscape:cx="81.525136"
     inkscape:cy="33.12721"
     inkscape:window-width="1920"
     inkscape:window-height="1111"
     inkscape:window-x="-9"
     inkscape:window-y="-9"
     inkscape:window-maximized="1"
     inkscape:current-layer="layer1">
    <inkscape:grid
       type="xygrid"
       id="grid949" />
  </sodipodi:namedview>
  <defs
     id="defs837">
    <rect
       x="0"
       y="0"
       width="60"
       height="40"
       id="rect19833" />
    <rect
       x="0"
       y="0"
       width="60"
       height="40"
       id="rect15779" />
    <rect
       x="1"
       y="3"
       width="48"
       height="31"
       id="rect11065" />
    <rect
       x="4"
       y="10"
       width="52"
       height="14"
       id="rect5185" />
  </defs>
  <g
     inkscape:label="Layer 1"
     inkscape:groupmode="layer"
     id="layer1">
    <rect
       style="fill:#000000;stroke:#000000;stroke-width:0.5;fill-opacity:1;opacity:1"
       id="rect951"
       width="60"
       height="40"
       x="0"
       y="0" />
    <text
       xml:space="preserve"
       id="text5183"
       style="font-size:28px;line-height:1.25;font-family:'Agency FB';-inkscape-font-specification:'Agency FB';white-space:pre;shape-inside:url(#rect5185);fill:#000000;fill-opacity:1" />
    <text
       xml:space="preserve"
       id="text11063"
       style="font-size:28px;line-height:1.25;font-family:'Bodoni MT';-inkscape-font-specification:'Bodoni MT';white-space:pre;shape-inside:url(#rect11065);font-weight:normal;font-style:normal;font-stretch:normal;font-variant:normal" />
    <text
       xml:space="preserve"
       id="text15777"
       style="line-height:1.25;font-family:'Agency FB';font-size:0.66666667px;-inkscape-font-specification:'Agency FB';white-space:pre;shape-inside:url(#rect15779)" />
    <text
       xml:space="preserve"
       id="text19831"
       style="line-height:1.25;font-family:'Agency FB';font-size:0.66666667px;-inkscape-font-specification:'Agency FB';white-space:pre;shape-inside:url(#rect19833)" />
    <rect
       style="opacity:1;fill:#f78e1e;fill-opacity:1;stroke:none;stroke-width:0.5"
       id="rect1306"
       width="60"
       height="40"
       x="0"
       y="0" />
    <g
       aria-label="TO TOP"
       id="text20411"
       style="font-size:20px;line-height:0.85;font-family:'Agency FB';-inkscape-font-specification:'Agency FB'">
      <path
         d="m 21.400313,7.6447601 q 0,0.1953125 -0.214843,0.1953125 -0.371094,0 -2.939453,-0.1464843 -0.05859,2.4707027 -0.05859,3.4472657 0,1.152344 0.08789,3.466797 0.09766,2.314453 0.09766,3.466797 0,0.185547 -0.08789,0.234375 -0.0293,0.01953 -0.273437,0.04883 -0.585938,0.07813 -1.71875,0.07813 -1.259766,0 -1.767579,-0.07813 -0.273437,-0.04883 -0.273437,-0.302735 0,-1.152343 0.09766,-3.457031 0.09766,-2.304687 0.09766,-3.457031 0,-0.761719 -0.07813,-3.3984376 -1.953125,0.1953125 -3.115234,0.1953125 -0.15625,0 -0.15625,-0.097656 0,-0.1269531 0.136719,-0.7519531 0.15625,-0.6835937 0.175781,-0.8300781 0.0293,-0.4589844 0.06836,-0.9179688 0.06836,-0.7324218 0.234375,-0.7324218 0.01953,0 0.136719,0.00977 1.582031,0.2050781 4.677735,0.2050781 0.878906,0 3.242187,-0.1855469 1.269531,-0.097656 1.279297,-0.097656 0.195312,0 0.224609,0.029297 0.0293,0.019531 0.03906,0.1855468 0,0.2636719 -0.01953,0.7324219 -0.01953,0.5175781 -0.01953,0.7324219 0,0.2441406 0.05859,0.7226562 0.06836,0.46875 0.06836,0.703125 z"
         style="font-family:'Berlin Sans FB Demi';-inkscape-font-specification:'Berlin Sans FB Demi'"
         id="path835" />
      <path
         d="m 36.009688,11.521713 q 0,3.046875 -1.943359,5.107422 -1.982422,2.089844 -5.019531,2.089844 -3.017578,0 -5.009766,-2.109375 -1.953125,-2.060547 -1.953125,-5.087891 0,-3.0371091 1.953125,-5.1074216 1.992188,-2.1191406 5.009766,-2.1191406 2.998047,0 5,2.1191406 1.96289,2.0898437 1.96289,5.1074216 z m -3.701171,-0.01953 q 0,-1.464844 -0.888672,-2.4902344 -0.927735,-1.0742187 -2.373047,-1.0742187 -1.376953,0 -2.333985,1.1132812 -0.927734,1.0742189 -0.927734,2.4707029 0,1.494141 0.869141,2.490235 0.917968,1.044922 2.392578,1.044922 1.376953,0 2.34375,-1.103516 0.917969,-1.054688 0.917969,-2.451172 z"
         style="font-family:'Berlin Sans FB Demi';-inkscape-font-specification:'Berlin Sans FB Demi'"
         id="path837" />
      <path
         d="m 21.400313,24.836119 q 0,0.195312 -0.214843,0.195312 -0.371094,0 -2.939453,-0.146484 -0.05859,2.470703 -0.05859,3.447265 0,1.152344 0.08789,3.466797 0.09766,2.314453 0.09766,3.466797 0,0.185547 -0.08789,0.234375 -0.0293,0.01953 -0.273437,0.04883 -0.585938,0.07813 -1.71875,0.07813 -1.259766,0 -1.767579,-0.07813 -0.273437,-0.04883 -0.273437,-0.302734 0,-1.152344 0.09766,-3.457031 0.09766,-2.304688 0.09766,-3.457032 0,-0.761718 -0.07813,-3.398437 -1.953125,0.195312 -3.115234,0.195312 -0.15625,0 -0.15625,-0.09766 0,-0.126953 0.136719,-0.751953 0.15625,-0.683594 0.175781,-0.830078 0.0293,-0.458984 0.06836,-0.917969 0.06836,-0.732422 0.234375,-0.732422 0.01953,0 0.136719,0.0098 1.582031,0.205078 4.677735,0.205078 0.878906,0 3.242187,-0.185547 1.269531,-0.09766 1.279297,-0.09766 0.195312,0 0.224609,0.0293 0.0293,0.01953 0.03906,0.185547 0,0.263672 -0.01953,0.732422 -0.01953,0.517578 -0.01953,0.732421 0,0.244141 0.05859,0.722657 0.06836,0.46875 0.06836,0.703125 z"
         style="font-family:'Berlin Sans FB Demi';-inkscape-font-specification:'Berlin Sans FB Demi'"
         id="path839" />
      <path
         d="m 36.009688,28.713072 q 0,3.046875 -1.943359,5.107422 -1.982422,2.089843 -5.019531,2.089843 -3.017578,0 -5.009766,-2.109375 -1.953125,-2.060546 -1.953125,-5.08789 0,-3.03711 1.953125,-5.107422 1.992188,-2.119141 5.009766,-2.119141 2.998047,0 5,2.119141 1.96289,2.089844 1.96289,5.107422 z m -3.701171,-0.01953 q 0,-1.464844 -0.888672,-2.490235 -0.927735,-1.074219 -2.373047,-1.074219 -1.376953,0 -2.333985,1.113282 -0.927734,1.074218 -0.927734,2.470703 0,1.49414 0.869141,2.490234 0.917968,1.044922 2.392578,1.044922 1.376953,0 2.34375,-1.103516 0.917969,-1.054687 0.917969,-2.451171 z"
         style="font-family:'Berlin Sans FB Demi';-inkscape-font-specification:'Berlin Sans FB Demi'"
         id="path841" />
      <path
         d="m 49.163985,27.072447 q 0,2.363281 -1.240234,3.828125 -1.328125,1.552734 -3.662109,1.552734 -0.390625,0 -1.181641,-0.03906 -0.78125,-0.04883 -1.171875,-0.04883 -0.419922,0 -0.419922,0.361328 0,0.449218 0.08789,1.33789 0.08789,0.888672 0.08789,1.328125 0,0.22461 -0.205078,0.22461 -0.595703,0 -1.787109,-0.03906 -1.191406,-0.0293 -1.78711,-0.0293 -0.283203,0 -0.283203,-0.283203 0,-1.083984 0.0293,-3.251953 0.03906,-2.177734 0.03906,-3.261719 0,-3.066406 -0.263672,-6.445312 l -0.0098,-0.136719 q -0.01953,-0.185547 0.292969,-0.224609 0.761719,-0.09766 3.359375,-0.09766 1.533203,0 2.939453,0.03906 2.314453,0.06836 3.730469,1.455078 1.445312,1.425781 1.445312,3.730469 z m -3.896484,0.15625 q 0,-2.275391 -2.216797,-2.275391 -1.5625,0 -1.640625,0.175781 -0.06836,0.126954 -0.06836,2.25586 0,0.302734 0.01953,0.898437 0.0293,0.585938 0.0293,0.888672 0,0.195313 1.757812,0.195313 2.119141,0 2.119141,-2.138672 z"
         style="font-family:'Berlin Sans FB Demi';-inkscape-font-specification:'Berlin Sans FB Demi'"
         id="path843" />
    </g>
  </g>
</svg>
